PathFileType	4	(X/Y/Z)	5_coords_data.trc
DataRate	CameraRate	NumFrames	NumMarkers	Units	OrigDataRate	OrigDataStartFrame	OrigNumFrames
30.0	30.0	7	21	m	30.0	49	68
Frame#	Time	THUMB_TIP	THUMB_IP	THUMB_MCP	THUMB_CMC	INDEX_TIP	INDEX_DIP	INDEX_PIP	INDEX_MCP	MIDDLE_TIP	MIDDLE_DIP	MIDDLE_PIP	MIDDLE_MCP	RING_TIP	RING_DIP	RING_PIP	RING_MCP	PINKY_TIP	PINKY_DIP	PINKY_PIP	PINKY_MCP	WRIST
X1	Y1	Z1	X2	Y2	Z2	X3	Y3	Z3	X4	Y4	Z4	X5	Y5	Z5	X6	Y6	Z6	X7	Y7	Z7	X8	Y8	Z8	X9	Y9	Z9	X10	Y10	Z10	X11	Y11	Z11	X12	Y12	Z12	X13	Y13	Z13	X14	Y14	Z14	X15	Y15	Z15	X16	Y16	Z16	X17	Y17	Z17	X18	Y18	Z18	X19	Y19	Z19	X20	Y20	Z20	X21	Y21	Z21
48	1.6	-0.015697299957275392	-0.11322100067138671	0.999926025390625	-0.03579230117797851	-0.11105500030517577	1.0170800170898437	-0.05604299926757812	-0.1012699966430664	1.036550048828125	-0.05367929840087891	-0.0722520980834961	1.04993994140625	-0.007609869956970215	-0.1102050018310547	0.9429819946289062	-0.024537099838256835	-0.10060199737548828	0.9521950073242188	-0.04220970153808594	-0.09006510162353516	0.9637249755859375	-0.06293220138549804	-0.07543779754638671	0.9938790283203125	0.01963559913635254	-0.098097900390625	0.9565280151367187	0.00045366400480270305	-0.08783480072021485	0.961125	-0.0246028995513916	-0.07416059875488282	0.9682730102539062	-0.055405101776123046	-0.055807300567626957	0.9909500122070313	0.019618299484252928	-0.07364630126953126	0.9534600219726562	0.001887159943580627	-0.06177989959716797	0.958218017578125	-0.02056290054321289	-0.04926860046386719	0.9664719848632812	-0.04348550033569336	-0.04160219955444336	0.9949860229492188	-0.0006623820066452021	-0.02135420036315918	0.9461060180664063	-0.011303000450134278	-0.022551900863647462	0.96318701171875	-0.020647300720214843	-0.025259199142456053	0.9793839721679688	-0.029679000854492186	-0.0319724006652832	1.0032100219726563	-0.06093820190429688	-0.03877069854736328	1.067280029296875
49	1.6333333333333333	-0.012083800315856933	-0.11332399749755859	0.9997349853515625	-0.03139539909362793	-0.11011499786376953	1.0177999877929687	-0.051309898376464845	-0.10091400146484375	1.03768994140625	-0.05023659896850586	-0.07108429718017578	1.0511099853515624	-0.007264470100402832	-0.10264499664306641	0.9359080200195312	-0.023653400421142577	-0.09557939910888671	0.9487210083007812	-0.040658798217773434	-0.08760310363769531	0.9633829956054687	-0.05979140090942383	-0.07616570281982422	0.9946640014648438	0.014490099906921386	-0.0816240005493164	0.9345440063476562	-0.004170639991760254	-0.07563749694824219	0.9468519897460937	-0.0277716007232666	-0.06720690155029296	0.962572021484375	-0.05428129959106445	-0.05597589874267578	0.9915709838867187	0.013294699668884278	-0.05703950119018555	0.9360560302734375	-0.004135379791259766	-0.04939500045776367	0.9481320190429687	-0.025231500625610352	-0.04222949981689453	0.9637410278320313	-0.04397100067138672	-0.04034500122070313	0.9953040161132812	-0.008609700202941894	-0.01243649959564209	0.9436530151367187	-0.01705069923400879	-0.01616830062866211	0.9622119750976562	-0.02442180061340332	-0.020630300521850584	0.9788049926757812	-0.03137739944458008	-0.028871700286865233	1.0025900268554688	-0.059189998626708984	-0.038682498931884766	1.067739990234375
50	1.6666666666666667	-0.009207679748535156	-0.11355699920654297	0.99943701171875	-0.027980300903320314	-0.10842099761962891	1.017989990234375	-0.04745289993286133	-0.09987370300292969	1.0383800048828125	-0.04759640121459961	-0.06996410369873046	1.0516300048828124	-0.011472800254821777	-0.09611100006103515	0.92839599609375	-0.025971099853515624	-0.09105760192871094	0.94464501953125	-0.040887100219726566	-0.08516130065917969	0.962260986328125	-0.05742330169677735	-0.07607450103759765	0.9951640014648437	0.005693809986114502	-0.06907160186767577	0.9211099853515625	-0.010325200080871582	-0.06685060119628906	0.9384810180664063	-0.030814599990844727	-0.06244139862060547	0.9598389892578125	-0.05292959976196289	-0.05576959991455078	0.99185400390625	0.003474230051040649	-0.04516189956665039	0.9246749877929688	-0.011387599945068359	-0.041412899017333984	0.9422160034179687	-0.02932699966430664	-0.03802750015258789	0.9628099975585938	-0.04412829971313476	-0.03925680160522461	0.9950889892578125	-0.01572089958190918	-0.007023660182952881	0.942156982421875	-0.02217020034790039	-0.012149200439453126	0.961135986328125	-0.027807100296020508	-0.017574100494384765	0.9779359741210938	-0.03289390182495117	-0.026540599822998046	1.0014099731445312	-0.057940498352050784	-0.037841800689697266	1.06777001953125
51	1.7	-0.01041390037536621	-0.1163270034790039	0.9986680297851562	-0.027481800079345704	-0.1079530029296875	1.01775	-0.046444000244140624	-0.09903199768066406	1.03872998046875	-0.04654560089111328	-0.06885299682617188	1.052010009765625	-0.017880300521850585	-0.09051820373535156	0.9222169799804687	-0.029746999740600587	-0.08712090301513672	0.941198974609375	-0.04225870132446289	-0.08285910034179687	0.9609290161132813	-0.05554010009765625	-0.07563749694824219	0.9954530029296875	-0.002890660047531128	-0.06094250106811523	0.9135189819335937	-0.015970600128173827	-0.06117639923095703	0.9338900146484375	-0.033103199005126954	-0.0594635009765625	0.958114013671875	-0.051660099029541016	-0.05535490036010742	0.9918280029296875	-0.0060049500465393065	-0.03728179931640625	0.9179210205078125	-0.01742490005493164	-0.03634489822387695	0.9389500122070312	-0.031770000457763674	-0.035565700531005856	0.9623670043945313	-0.04353900146484375	-0.03846469879150391	0.995177978515625	-0.020657400131225585	-0.0034518399238586423	0.9414929809570313	-0.025416500091552736	-0.009603489875793457	0.9607329711914062	-0.029957399368286133	-0.01567109966278076	0.9776279907226563	-0.03359540176391602	-0.025125999450683594	1.0011300048828125	-0.057217899322509765	-0.03691759872436524	1.0679300537109375
52	1.7333333333333334	-0.013001199722290038	-0.11881999969482422	0.9977009887695313	-0.028010799407958985	-0.10751100158691407	1.016969970703125	-0.046227901458740235	-0.09802770233154297	1.038719970703125	-0.04604560089111328	-0.06790789794921875	1.052260009765625	-0.02234880065917969	-0.08612590026855468	0.9189539794921875	-0.03225979995727539	-0.08403530120849609	0.9393510131835937	-0.04290999984741211	-0.08088990020751953	0.9603599853515625	-0.054389900207519534	-0.0749916000366211	0.9954819946289063	-0.008850560188293458	-0.05519309997558594	0.9097680053710937	-0.019758600234985352	-0.05712080001831055	0.93143798828125	-0.034472999572753904	-0.05720489883422852	0.9572009887695313	-0.05096139907836914	-0.0546531982421875	0.9918079833984375	-0.012334400177001954	-0.03195089912414551	0.9150040283203125	-0.02127790069580078	-0.03268769836425781	0.9374760131835937	-0.03334220123291016	-0.03354000091552734	0.9621170043945313	-0.043653701782226564	-0.037606498718261716	0.9952329711914063	-0.023878900527954102	-0.000944351971149444	0.9414520263671875	-0.02768440055847168	-0.007663219928741455	0.9607080078125	-0.03135169982910156	-0.014099300384521484	0.9775020141601563	-0.03432149887084961	-0.02389550018310547	1.001010009765625	-0.05721670150756836	-0.03624850082397461	1.0681099853515625
53	1.7666666666666666	-0.017117700576782226	-0.12261599731445312	0.9978920288085937	-0.028940399169921874	-0.10802999877929688	1.0163300170898437	-0.04622819900512695	-0.09749669647216797	1.038800048828125	-0.04590359878540039	-0.06706620025634766	1.0525799560546876	-0.0262544002532959	-0.0834354019165039	0.91681201171875	-0.03440530014038086	-0.08218789672851562	0.938166015625	-0.04359489822387695	-0.0797926025390625	0.9599910278320313	-0.05345619964599609	-0.07473739624023437	0.9954669799804687	-0.015147100448608399	-0.05101649856567383	0.9068289794921875	-0.02375760078430176	-0.05428670120239258	0.9296060180664063	-0.035965499877929685	-0.05573929977416992	0.956469970703125	-0.05005410003662109	-0.05428670120239258	0.9916290283203125	-0.01891550064086914	-0.02825189971923828	0.9127470092773438	-0.025359399795532228	-0.030209699630737306	0.9363419799804688	-0.034809101104736326	-0.03221200180053711	0.9616599731445312	-0.04325080108642578	-0.03712710189819336	0.995166015625	-0.026342599868774415	0.00042592298984527505	0.941093994140625	-0.029363100051879882	-0.0065660600662231445	0.9602680053710938	-0.03238990020751953	-0.013183799743652344	0.977239013671875	-0.03476679992675781	-0.023059200286865235	1.00072998046875	-0.05697769927978515	-0.03569710159301758	1.06827001953125
54	1.8	-0.019845399856567383	-0.12489299774169922	0.99868701171875	-0.029299800872802734	-0.10826300048828125	1.0162999877929688	-0.046125099182128905	-0.09708879852294922	1.0391099853515624	-0.04540739822387695	-0.06642169952392578	1.052760009765625	-0.02969129943847656	-0.08221320343017578	0.9156179809570313	-0.03643270111083984	-0.08142929840087891	0.9376270141601563	-0.04433309936523438	-0.07947389984130859	0.9599660034179688	-0.05272819900512695	-0.07469940185546875	0.9956829833984375	-0.019506099700927735	-0.049340999603271485	0.9052880249023437	-0.02648590087890625	-0.053191898345947265	0.9286240234375	-0.036982601165771484	-0.05519350051879883	0.9561599731445313	-0.04946120071411133	-0.0543494987487793	0.9915120239257813	-0.02417889976501465	-0.026699399948120116	0.9115360107421875	-0.028623899459838866	-0.029355100631713867	0.9355130004882812	-0.0361969985961914	-0.03192709922790527	0.9613259887695312	-0.043175098419189456	-0.03712490081787109	0.9951699829101562	-0.028563499450683594	0.000793739020824432	0.9407050170898438	-0.03104520034790039	-0.006259789943695068	0.960166015625	-0.033562801361083985	-0.012922800064086915	0.976927001953125	-0.03520119857788086	-0.022789600372314454	1.0006799926757812	-0.05692490005493164	-0.03523270034790039	1.0683599853515624
